<svg version="1.1" viewBox="0 0 32 32" xmlns="http://www.w3.org/2000/svg">
 <g>
  <path d="m16 1c-2.9588 0-5.8091 0.8625-8.2754 2.5h-4.2246v4.2246c-1.6375 2.4662-2.5 5.3166-2.5 8.2754s0.8625 5.8091 2.5 8.2754v4.2246h4.2246c2.4662 1.6375 5.3166 2.5 8.2754 2.5s5.8091-0.8625 8.2754-2.5h4.2246v-4.2246c1.6375-2.4662 2.5-5.3166 2.5-8.2754s-0.8625-5.8091-2.5-8.2754v-4.2246h-4.2246c-2.4662-1.6375-5.3166-2.5-8.2754-2.5zm0 2c2.5642 0 5.0345 0.74685 7.1719 2.166h3.6621v3.6621c1.4192 2.1374 2.166 4.6076 2.166 7.1719s-0.74685 5.0345-2.166 7.1719v3.6621h-3.6621c-2.1374 1.4192-4.6076 2.166-7.1719 2.166s-5.0345-0.74685-7.1719-2.166h-3.6621v-3.6621c-1.4192-2.1374-2.166-4.6076-2.166-7.1719s0.74685-5.0345 2.166-7.1719v-3.6621h3.6621c2.1374-1.4192 4.6076-2.166 7.1719-2.166z"/>
  <path d="m24.494 16.766s-0.16818 1.0928 0.16823 1.429c0 0-0.25227 1.317-2.2137 1.317 0 0 0.72858-2.8862-3.7268-2.9983 0 0-4.6236-3.4466-8.5325 0.58846 0 0 0.94578-2.0386 3.5097-2.5009 0 0-4.014-1.0718-5.7373 1.3239 0 0 1.443-4.2451 8.3502-2.6899 0 0-4.3993-1.8914-8.3502 0.04197 0 0 2.4798-2.8581 7.3554-1.5551 0 0-3.1102-1.345-6.0945-0.96673 0 0 3.7548-1.1768 7.0893 0.46241 0 0-4.3993-4.3713-4.4413-6.8932 0 0 3.6987 5.0438 6.7671 7.0193 0 0-1.8074-2.8162-1.5552-5.8003 0 0 1.6812 5.8424 5.1279 8.4483 0 0 0.63043 0.56756-0.08419 0.63048-0.71452 0.06308-2.3748-1.7443-2.3748-1.7443s0.06052 2.2092 2.3119 2.0806c0.73542-0.04202 1.0157 1.4712 2.4307 1.8074"/>
  <path d="m17.335 16.556s-0.54645 2.6059 1.1768 3.8668c0 0-1.2558-2.7353 1.1769-3.2784 0 0-2.3882 2.2018 0.50427 3.8249 0 0-1.3309 1.5552-3.8808 0.16807l0.85463-0.4623s-0.71452-1.3157-1.5132-1.5405c0 0 0.8827-0.53164 1.303 0 0 0-0.71452-1.5698-1.9335-1.5698 0 0 0.51843-0.6725 1.289-0.37827 0 0-3.0516-1.8228-5.6602 3.0684-0.50443 0.96668-0.92471 5.3799 3.3625 8.07 0 0-6.641-3.0403-4.2872-8.8126 2.3117-4.7636 7.1874-3.1664 7.6077-2.9562"/>
 </g>
</svg>
